/* XPM */
static char * pixmap[] = {
/* width height num_colors chars_per_pixel */
"32 32 537 6",
/* colors */
"       c #FFFFFF",
"!      c #FFFFFE",
"#      c #FEFEFE",
"$      c #FDFDFD",
"%      c #FCFCFB",
"&      c #FBFCFD",
"'      c #FBFCFC",
"(      c #FAFBFC",
")      c #FAFAFA",
"*      c #F9FAFB",
"+      c #F8F9FA",
",      c #F8F8F8",
"-      c #F7F9FA",
".      c #F7F9F9",
"/      c #F7F7F7",
"0      c #F6F6F7",
"1      c #F6F6F6",
"2      c #F5F7F8",
"3      c #F5F6F7",
"4      c #F4F6F8",
"5      c #F4F3F2",
"6      c #F3F6F7",
"7      c #F3F3F3",
"8      c #F2F5F7",
"9      c #F0F4F6",
":      c #F0F3F5",
";      c #EEF2F4",
"<      c #EEEFF0",
"=      c #EEEEEE",
">      c #EDF1F3",
"?      c #EDF0F1",
"@      c #EBF0F2",
"A      c #EBEFF2",
"B      c #EAEFF1",
"C      c #EAEBEC",
"D      c #E9EBED",
"E      c #E8EEF2",
"F      c #E8EDEF",
"G      c #E5ECEF",
"H      c #E4EAED",
"I      c #E2E8EB",
"J      c #E2E7EA",
"K      c #E1E8EB",
"L      c #DFE1E3",
"M      c #DEE6EA",
"N      c #DBE5E9",
"O      c #DBE4E9",
"P      c #DBE4E8",
"Q      c #DADCDF",
"R      c #DADCDE",
"S      c #D8E2E7",
"T      c #D8E1E6",
"U      c #D8DDE0",
"V      c #D6DEE3",
"W      c #D5E2E8",
"X      c #D5DFE4",
"Y      c #D5DBDF",
"Z      c #D4DFE4",
"[      c #D4DADE",
"]      c #D2DEE4",
"^      c #D2DBDF",
"_      c #D2D9DE",
"`      c #D0DCE3",
"a      c #D0D7DB",
"b      c #CDD8DD",
"c      c #CCD8DD",
"d      c #CCD5DA",
"e      c #CBCFD3",
"f      c #CAD3D8",
"g      c #CAD0D3",
"h      c #C9D5DA",
"i      c #C8D5DB",
"j      c #C6D6DF",
"k      c #C4D2D8",
"l      c #C4CED4",
"m      c #C4CACE",
"n      c #C3D1D8",
"o      c #BFCED6",
"p      c #BFCCD2",
"q      c #BED0D8",
"r      c #BECED6",
"s      c #BEC9CF",
"t      c #BEC4C8",
"u      c #BDCDD5",
"v      c #BDC9CF",
"w      c #BCCDD6",
"x      c #BCC3C7",
"y      c #B9CAD3",
"z      c #B8BEC2",
"{      c #B7C9D2",
"|      c #B6C7CE",
"}      c #B6BFC4",
"~      c #B4C6CE",
" !     c #B4BDC2",
"!!     c #B3BABF",
"#!     c #B3B9BE",
"$!     c #B2C3CA",
"%!     c #B2BAC0",
"&!     c #B1C2CB",
"'!     c #B1BBC0",
"(!     c #B0C6D1",
")!     c #AFC2CB",
"*!     c #AEC2CB",
"+!     c #AEC1CA",
",!     c #ABBCC5",
"-!     c #A7AFB5",
".!     c #A5BCC6",
"/!     c #A4BAC5",
"0!     c #A3BAC5",
"1!     c #A1A9AF",
"2!     c #9EB6C2",
"3!     c #9DB4C0",
"4!     c #9CB5C2",
"5!     c #9CB5C1",
"6!     c #9CB1BC",
"7!     c #9BB6C3",
"8!     c #9BB4BF",
"9!     c #9BB2BE",
":!     c #99B3C1",
";!     c #98B4C1",
"<!     c #98B1BE",
"=!     c #98ADB7",
">!     c #98A5AD",
"?!     c #97B3C1",
"@!     c #95B0BE",
"A!     c #93B1C0",
"B!     c #93ADBA",
"C!     c #91ADBA",
"D!     c #91ABB7",
"E!     c #90ABB7",
"F!     c #90A6B1",
"G!     c #8EA7B4",
"H!     c #8DA7B3",
"I!     c #8CADBE",
"J!     c #8CAAB8",
"K!     c #8CA9B8",
"L!     c #8BA6B2",
"M!     c #8AAAB9",
"N!     c #8AA6B4",
"O!     c #89A8B6",
"P!     c #8998A1",
"Q!     c #88A7B7",
"R!     c #87A4B3",
"S!     c #8799A3",
"T!     c #86949D",
"U!     c #85A5B5",
"V!     c #85A3B1",
"W!     c #85A1AF",
"X!     c #85959F",
"Y!     c #839FAC",
"Z!     c #839CA8",
"[!     c #82A2B1",
"]!     c #81A1B2",
"^!     c #81A0B0",
"_!     c #819CA8",
"`!     c #80A3B5",
"a!     c #7FA1B2",
"b!     c #7E9BA7",
"c!     c #7D9EAE",
"d!     c #7D9BA8",
"e!     c #7D99A3",
"f!     c #7D919D",
"g!     c #7BA0B2",
"h!     c #7B98A6",
"i!     c #7A98A6",
"j!     c #7999A9",
"k!     c #78848D",
"l!     c #7798A7",
"m!     c #7694A3",
"n!     c #759DB1",
"o!     c #7598AB",
"p!     c #749AAD",
"q!     c #7498AA",
"r!     c #7493A2",
"s!     c #748894",
"t!     c #7395A4",
"u!     c #7394A4",
"v!     c #738F9D",
"w!     c #738895",
"x!     c #73828C",
"y!     c #728F9D",
"z!     c #7191A1",
"{!     c #708E9D",
"|!     c #6F95A8",
"}!     c #6E8E9D",
"~!     c #6E8A98",
" #     c #6C92A4",
"!#     c #6C90A1",
"##     c #6C818E",
"$#     c #6B8796",
"%#     c #6B8794",
"&#     c #6B8694",
"'#     c #6B7D88",
"(#     c #6A8C9C",
")#     c #6A8C9B",
"*#     c #6A8B9B",
"+#     c #6A8494",
",#     c #6A828F",
"-#     c #688594",
".#     c #687E8A",
"/#     c #6790A4",
"0#     c #678FA2",
"1#     c #678A9B",
"2#     c #658595",
"3#     c #648B9D",
"4#     c #638FA5",
"5#     c #63889A",
"6#     c #63747F",
"7#     c #628B9E",
"8#     c #62889B",
"9#     c #62889A",
":#     c #627581",
";#     c #6191A9",
"<#     c #608699",
"=#     c #5F879A",
">#     c #5F8597",
"?#     c #5F6F7A",
"@#     c #5F6E78",
"A#     c #5F6D78",
"B#     c #5E8CA3",
"C#     c #5E879A",
"D#     c #5E8496",
"E#     c #5E7481",
"F#     c #5D8CA4",
"G#     c #5D899F",
"H#     c #5D889E",
"I#     c #5D8497",
"J#     c #5D727F",
"K#     c #5C7C8B",
"L#     c #5C7583",
"M#     c #5B7382",
"N#     c #598296",
"O#     c #58869D",
"P#     c #588398",
"Q#     c #578399",
"R#     c #578095",
"S#     c #557E92",
"T#     c #557B8D",
"U#     c #55646F",
"V#     c #547D90",
"W#     c #54646F",
"X#     c #54646E",
"Y#     c #538299",
"Z#     c #537A8C",
"[#     c #527C91",
"]#     c #527A8E",
"^#     c #527181",
"_#     c #517B90",
"`#     c #517B8F",
"a#     c #51798C",
"b#     c #51616D",
"c#     c #5085A0",
"d#     c #507C91",
"e#     c #50616D",
"f#     c #4F7689",
"g#     c #4E798C",
"h#     c #4E778A",
"i#     c #4E7689",
"j#     c #4D7284",
"k#     c #4C616F",
"l#     c #497488",
"m#     c #477389",
"n#     c #467D98",
"o#     c #467184",
"p#     c #45768E",
"q#     c #436B7F",
"r#     c #42738C",
"s#     c #406E84",
"t#     c #406B7F",
"u#     c #3F6577",
"v#     c #3D5967",
"w#     c #3C6C83",
"x#     c #3B7B9A",
"y#     c #39657A",
"z#     c #366981",
"{#     c #345A6D",
"|#     c #34596C",
"}#     c #337799",
"~#     c #326A84",
" $     c #326983",
"!$     c #317597",
"#$     c #31637A",
"$$     c #30637B",
"%$     c #2F5F74",
"&$     c #2E6179",
"'$     c #2D6E8F",
"($     c #2A79A0",
")$     c #2A6C8B",
"*$     c #2A6987",
"+$     c #2A566B",
",$     c #296684",
"-$     c #286481",
".$     c #27607A",
"/$     c #274658",
"0$     c #265B75",
"1$     c #26485A",
"2$     c #264353",
"3$     c #257092",
"4$     c #25617D",
"5$     c #25475A",
"6$     c #254557",
"7$     c #254355",
"8$     c #24607D",
"9$     c #245F7B",
":$     c #244355",
";$     c #23566F",
"<$     c #234355",
"=$     c #234050",
">$     c #225E7B",
"?$     c #224356",
"@$     c #224355",
"A$     c #215C78",
"B$     c #215A75",
"C$     c #214E64",
"D$     c #214960",
"E$     c #21465A",
"F$     c #214356",
"G$     c #213B4C",
"H$     c #205772",
"I$     c #20546E",
"J$     c #1F5670",
"K$     c #1F4458",
"L$     c #1E5873",
"M$     c #1E556F",
"N$     c #1E5268",
"O$     c #1E4458",
"P$     c #1E4052",
"Q$     c #1E3B4C",
"R$     c #1D6689",
"S$     c #1D546E",
"T$     c #1D536B",
"U$     c #1D475D",
"V$     c #1D455B",
"W$     c #1D455A",
"X$     c #1D4559",
"Y$     c #1D4459",
"Z$     c #1D3D4F",
"[$     c #1D394A",
"]$     c #1C546E",
"^$     c #1C536E",
"_$     c #1C526B",
"`$     c #1C5169",
"a$     c #1C445B",
"b$     c #1C445A",
"c$     c #1C4459",
"d$     c #1B5168",
"e$     c #1B455A",
"f$     c #1B445A",
"g$     c #1A526C",
"h$     c #1A4F67",
"i$     c #1A4E66",
"j$     c #1A465B",
"k$     c #1A3140",
"l$     c #1A303F",
"m$     c #19516B",
"n$     c #19516A",
"o$     c #19506A",
"p$     c #195069",
"q$     c #194F69",
"r$     c #194F68",
"s$     c #194E67",
"t$     c #194E66",
"u$     c #194D66",
"v$     c #19455C",
"w$     c #19455B",
"x$     c #194054",
"y$     c #186185",
"z$     c #184E66",
"{$     c #184D66",
"|$     c #184D65",
"}$     c #184C65",
"~$     c #184B62",
" %     c #18475D",
"!%     c #18465D",
"#%     c #18455D",
"$%     c #183D51",
"%%     c #175471",
"&%     c #174C65",
"'%     c #164F69",
"(%     c #16465D",
")%     c #16465C",
"*%     c #155879",
"+%     c #154D65",
",%     c #154B64",
"-%     c #154B63",
".%     c #15475F",
"/%     c #15475E",
"0%     c #15465E",
"1%     c #15445A",
"2%     c #152C3D",
"3%     c #14516F",
"4%     c #144C66",
"5%     c #144B63",
"6%     c #14475F",
"7%     c #14475E",
"8%     c #14384C",
"9%     c #143244",
":%     c #142B3B",
";%     c #134A62",
"<%     c #134962",
"=%     c #134860",
">%     c #13485F",
"?%     c #134055",
"@%     c #125374",
"A%     c #124B67",
"B%     c #124961",
"C%     c #124960",
"D%     c #11455D",
"E%     c #114359",
"F%     c #113B50",
"G%     c #105271",
"H%     c #102C3E",
"I%     c #0F4861",
"J%     c #0F4259",
"K%     c #0F4159",
"L%     c #0E4762",
"M%     c #0C455E",
"N%     c #0C2B3E",
"O%     c #0B4864",
"P%     c #0B4764",
"Q%     c #0B415C",
"R%     c #0B3F5A",
"S%     c #0B2638",
"T%     c #0A5173",
"U%     c #0A425C",
"V%     c #0A374D",
"W%     c #0A364C",
"X%     c #094562",
"Y%     c #09415C",
"Z%     c #09415B",
"[%     c #093F57",
"]%     c #092E43",
"^%     c #08415A",
"_%     c #07425C",
"`%     c #07425B",
"a%     c #072334",
"b%     c #072234",
"c%     c #065479",
"d%     c #064C6E",
"e%     c #06496A",
"f%     c #05577F",
"g%     c #055075",
"h%     c #053F5B",
"i%     c #044565",
"j%     c #04425F",
"k%     c #043E5F",
"l%     c #043D56",
"m%     c #034669",
"n%     c #033E5B",
"o%     c #033953",
"p%     c #024D72",
"q%     c #023149",
"r%     c #021E30",
"s%     c #014D72",
"t%     c #014C71",
"u%     c #013E5D",
"v%     c #013B58",
"w%     c #013A57",
"x%     c #011B2D",
"y%     c #011B2C",
"z%     c #011A2C",
"{%     c #003F5C",
"|%     c #003C5C",
"}%     c #003C5A",
"~%     c #003C59",
" &     c #003A58",
"!&     c #003A56",
"#&     c #003954",
"$&     c #003953",
"%&     c #003753",
"&&     c #00364F",
"'&     c #003455",
"(&     c #003351",
")&     c #00334D",
"*&     c #003251",
"+&     c #003150",
",&     c #00314D",
"-&     c #00314B",
".&     c #00314A",
"/&     c #00304F",
"0&     c #00304C",
"1&     c #00304B",
"2&     c #002F4B",
"3&     c #002F4A",
"4&     c #002E4E",
"5&     c #002E4A",
"6&     c #002E48",
"7&     c #002D4C",
"8&     c #002D48",
"9&     c #002C45",
":&     c #002B47",
";&     c #002A46",
"<&     c #002945",
"=&     c #002845",
">&     c #002844",
"?&     c #002843",
"@&     c #002841",
"A&     c #002840",
"B&     c #002743",
"C&     c #002742",
"D&     c #002740",
"E&     c #00273E",
"F&     c #002643",
"G&     c #002642",
"H&     c #00263D",
"I&     c #002541",
"J&     c #00253D",
"K&     c #002440",
"L&     c #00243E",
"M&     c #00243A",
"N&     c #00233E",
"O&     c #002339",
"P&     c #00223F",
"Q&     c #00223E",
"R&     c #00223A",
"S&     c #002235",
"T&     c #002036",
"U&     c #001F37",
"V&     c #001E37",
"W&     c #001E33",
"X&     c #001E30",
"Y&     c #001D3B",
"Z&     c #001C33",
"[&     c #001C31",
"]&     c #001C2E",
"^&     c #001B2D",
"_&     c #001A36",
"`&     c #00192B",
"a&     c #00182C",
"b&     c #001728",
"c&     c #001628",
"d&     c #000F2C",
"e&     c #000E2D",
"f&     c #000B30",
"g&     c #000A22",
"h&     c #000012",
"i&     c #00000F",
/* pixels */
"                                                                                                                                                                                                ",
"                                                                  /     v     F!    v!    2#    2#    y!    F!    s     /                                                                       ",
"                                                      _     $#    C$    1&    G&    >&    :&    :&    ?&    G&    3&    C$    ~!    d     #                                                     ",
"                                          -     +#    )&    P&    #&    <%    |$    u$    {$    {$    |$    &%    B%    $&    e&    +$    #                                                     ",
"                                    b     D$    Y&    ^%    h$    t$    s$    r$    p$    o$    p$    q$    r$    t$    i$    B&    r!                3     +                                   ",
"                              p     8&    ;&    d$    <%    !&    ~%    '%    A%    {%    j%    m$    S$    g$    n$    4%    %&    b           '     K#    J                                   ",
"                        ^     9&    0&    `$    Q%    _$    l#    s#    X%    &$    m#    w#    O%    ^$    M$    ]$    n%    #$                $!    q#    #                                   ",
"                  ,     a$    <&    z$    ,%    Y%    ]#                N!    8#                c!    |%    H$    J$    +&    j!                *#    i!                                        ",
"                  %#    _&    +%    }$    w%    I#    9!    o                 P#    9           2     3%    %%    L$    u%    n                 i#    b           Y     e!                      ",
"            U     6&    L%    _$    M$    '&    <!    A     R!                0#    :!                Y#    d%    @%     $    $           k     a#                ,!    d&    [                 ",
"            -#    7&    B$    B$    A$    i%    i           ^!    6           7!    /#                A!    s%    t%    p!                l!    u!                z!    f&    &#                ",
"      7     I$    G%    9$    4$    *%    ~#    )           5!    r           E     O#    -           X     y$    c%    y                 V#    u           %     $$    m%    ;$    5           ",
"      }      &    )$    ,$    *$    p%    |!                ]!    q!                4#    (!                x#    R$    1           X     `#                l     e%    3$    v%    z           ",
"      S!    V&    8$    }#    !$    g%    )!                p#    r#                I!    n!                ;#    c#                V!    !#                [!    f%    -$    Z&    P!          ",
"      ,#    R&    J%    >$    ($    '$    =           S      #    Q!    ]           W     F#                ;!    M!                N#    *!                n#    T%    ?%    T&    ##          ",
"      L#    @&    D%    E%    k%    G#                O!    C!    `     ?!                B#    j           O     a!          G     d#    *           V     h%    [%    1%    E&    E#          ",
"      M#    D&    6%    5%    K&    =!                C#    {     (     U!                g!    `!                o!    (     0!    3#                H!    I&    =%    !%    H&    J#          ",
"      .#    J&    0%    _%    Z%    I           @     [#    4           @!    M           q     H#                K!    w     R!    2!                o#    ,&    >%    w$    M&    '#          ",
"      X!    U&     %    2&    t#                8!    <#                ]!    4!          !     Q#    N           Z     R#    9#    :           H     U%    `%    7%    V$    W&    T!          ",
"      '!    O&    j$    Q&    Y!                5#    D!                .$    7#                 #    J!                0$    S#                6!    =&    C%    #%    O$    S&    %!          ",
"      <     Z$    W%    .&    c           (     h#    K           B     }%    z#                .!    =#                t!    E!                Z#    :&    .%    e$    8%    G$    <           ",
"            :#    g&    {#                &!    T#                /!    4&    P%    P           8     _#    >           ~     W!          ;     I%    l%    v$    E$    [&    6#                ",
"            g     h&    w!                )#    h!                >#    *&    /&    B!                D#    3!          8     (#          +!    F&    )%    X$    P$    X&    e                 ",
"                  v#    >!                j#    h           .     T$    _%    (&    g#                G!    1#                m!    T     b!    N&    W$    5$    a&    ?#                      ",
"                  ?     D           f     ^#                |     5&    -%    M%    R%    F                 f#    &           P     }!    u#    V%    5$    N%    2%    C                       ",
"                                    f!    s!                {!    P&    ;%    -%    o%    %$    d!    L!    N$    y#    _!    Z!    U$    F%    1$    9%    c&    t                             ",
"                                    k#     !                |#    q%    (%    /%    ~$    &&    G&    C&    K%    -&    L&    A&    $%    /$    H%    b&    -!                                  ",
"                                    m     0           a     ]%    x$    O$    Y$    b$    f$    f$    c$    Y$    K$    F$    6$    =$    `&    :%    !!                                        ",
"                                                      x!    i&    Q$    7$    :$    @$    ?$    ?$    <$    :$    2$    [$    r%    y%    b#    L                                               ",
"                                                      x     e#    k$    x%    ]&    b%    S%    S%    a%    ^&    z%    l$    U#    #!                                                          ",
"                                                                  Q     1!    k!    A#    W#    X#    @#    k!    1!    R                                                                       ",
"                                                                                                                                                                                                "
};
